<?xml version="1.0" standalone="no"?>
<!DOCTYPE svg PUBLIC "-//W3C//DTD SVG 20010904//EN"
 "http://www.w3.org/TR/2001/REC-SVG-20010904/DTD/svg10.dtd">
<svg version="1.0" xmlns="http://www.w3.org/2000/svg"
 width="180.000000pt" height="180.000000pt" viewBox="0 0 180.000000 180.000000"
 preserveAspectRatio="xMidYMid meet">
<metadata>
Created by potrace 1.11, written by Peter Selinger 2001-2013
</metadata>
<g transform="translate(0.000000,180.000000) scale(0.100000,-0.100000)"
fill="#000000" stroke="none">
<path d="M0 900 l0 -900 900 0 900 0 0 900 0 900 -900 0 -900 0 0 -900z m1314
739 c55 -44 56 -48 56 -434 0 -379 -2 -398 -50 -440 -21 -19 -38 -20 -296 -23
-232 -2 -278 -1 -303 13 -60 31 -61 37 -61 444 0 216 4 380 10 395 5 14 24 35
42 46 31 19 51 20 304 20 260 0 272 -1 298 -21z m-1001 -57 c9 -9 25 -60 37
-112 11 -52 22 -105 25 -117 5 -22 9 -23 129 -23 104 0 125 -3 130 -16 3 -9 6
-124 6 -256 0 -272 3 -283 75 -318 38 -18 63 -20 301 -20 233 0 263 2 294 19
74 39 74 43 80 329 l5 257 100 3 c119 3 142 -1 156 -31 13 -29 -121 -660 -147
-688 -16 -18 -39 -19 -485 -19 -294 0 -470 -4 -474 -10 -3 -5 -2 -27 4 -47 5
-21 12 -49 15 -63 4 -18 16 -30 40 -38 20 -7 51 -31 69 -53 l34 -39 279 0 279
1 20 32 c28 45 102 80 150 71 100 -18 156 -137 105 -222 -58 -95 -201 -97
-256 -3 l-18 31 -283 0 -282 0 -16 -29 c-35 -69 -129 -99 -195 -63 -54 29 -80
75 -80 138 0 48 4 59 35 93 l35 39 -115 528 c-63 291 -117 535 -120 542 -3 8
-27 12 -74 12 -54 0 -70 4 -75 16 -8 21 -8 59 1 67 3 4 50 7 103 7 80 0 100
-3 113 -18z"/>
<path d="M1188 1443 l-37 -37 -24 22 c-13 12 -29 22 -35 22 -23 0 -11 -37 22
-69 l35 -34 52 50 c36 35 50 55 46 67 -9 23 -18 20 -59 -21z"/>
<path d="M779 1414 c-17 -20 4 -24 127 -24 112 0 152 8 124 25 -19 12 -241 11
-251 -1z"/>
<path d="M1188 1213 l-37 -37 -24 22 c-13 12 -29 22 -35 22 -22 0 -12 -26 23
-60 l35 -34 50 49 c49 48 62 75 37 75 -7 0 -29 -17 -49 -37z"/>
<path d="M780 1180 c0 -20 5 -20 122 -18 108 3 123 5 126 21 3 15 -8 17 -122
17 -120 0 -126 -1 -126 -20z"/>
<path d="M1193 999 l-40 -41 -27 27 c-26 25 -46 26 -46 1 0 -6 16 -27 35 -46
l35 -34 56 55 c45 45 53 58 42 67 -11 9 -23 3 -55 -29z"/>
<path d="M782 963 c3 -16 18 -18 118 -21 113 -2 149 5 136 27 -5 7 -51 11
-132 11 -114 0 -125 -2 -122 -17z"/>
<path d="M1385 348 c-44 -25 -47 -67 -8 -97 28 -23 59 -20 81 7 38 49 -19 120
-73 90z"/>
<path d="M516 337 c-38 -28 -10 -107 38 -107 27 0 40 9 55 37 15 30 14 40 -9
63 -23 23 -58 26 -84 7z"/>
</g>
</svg>
